<svg width="155" height="36" viewBox="0 0 155 36" fill="none" xmlns="http://www.w3.org/2000/svg">
<path d="M48.0476 7.47927C47.595 7.46263 47.1561 7.64566 46.8579 7.97844C46.5596 8.32453 46.4018 8.76379 46.419 9.21637V19.5158C46.4704 21.2097 45.5275 22.787 43.9846 23.5824C43.2646 23.9617 42.4589 24.1581 41.6394 24.1514C40.0382 24.1481 38.5605 23.3195 37.7548 21.9751C37.3193 21.2263 37.0999 20.3744 37.1239 19.5125V9.21304C37.1342 8.74383 36.9353 8.29458 36.5822 7.97511C36.2599 7.65897 35.8244 7.47927 35.365 7.47594C34.8644 7.45931 34.3775 7.63901 34.0175 7.97511C33.6712 8.2979 33.4792 8.74715 33.4895 9.21304V19.5125C33.4586 20.9701 33.8187 22.411 34.5318 23.6955C35.197 24.8835 36.1913 25.8686 37.4016 26.5408C38.6942 27.2429 40.1582 27.5957 41.636 27.5657C43.1138 27.5957 44.5709 27.2429 45.8567 26.5408C47.0601 25.8652 48.0442 24.8802 48.7093 23.6955C49.4191 22.411 49.7791 20.9701 49.7516 19.5125V9.21304C49.7654 8.75714 49.5939 8.31454 49.2751 7.97511C48.9596 7.64233 48.5105 7.45931 48.0442 7.47594L48.0476 7.47927Z" fill="white"/>
<path d="M63.4934 23.4786C63.1511 23.4561 62.8089 23.5432 62.5282 23.727C62.2989 23.9012 62.056 24.0592 61.7958 24.1979C61.5186 24.3205 61.2209 24.4044 60.9163 24.4463C60.4988 24.5076 60.0778 24.5334 59.6569 24.5302C58.8355 24.5431 58.0278 24.3334 57.333 23.9238C56.6588 23.5206 56.1147 22.9529 55.7519 22.282C55.3617 21.5498 55.1667 20.7402 55.1838 19.9241C55.1667 19.0984 55.3549 18.2823 55.7382 17.5404C56.0941 16.863 56.6486 16.2954 57.333 15.8986C58.0997 15.4761 58.9758 15.2664 59.8656 15.2922C60.1668 15.3019 60.4645 15.3341 60.7589 15.389C61.0703 15.4277 61.3715 15.518 61.6521 15.6535C61.8506 15.7535 62.0354 15.8728 62.2065 16.0115C62.3708 16.1437 62.5556 16.2502 62.7541 16.3244C63.0005 16.4147 63.2641 16.4566 63.5276 16.4502C63.9348 16.4695 64.325 16.2857 64.5509 15.9663C64.7733 15.6631 64.8897 15.3051 64.8863 14.9342C64.8863 14.3891 64.6364 13.8697 64.1984 13.5149C63.6405 13.0698 62.9834 12.7537 62.275 12.5924C61.3236 12.357 60.3448 12.2473 59.3625 12.2602C57.9628 12.2344 56.5801 12.5731 55.3686 13.2408C54.2152 13.8859 53.2707 14.8213 52.6478 15.9405C51.9736 17.1695 51.6348 18.5403 51.669 19.9241C51.6485 21.2691 51.9633 22.6013 52.5896 23.8141C53.1714 24.9398 54.0749 25.8914 55.2009 26.559C56.4056 27.2493 57.7985 27.5977 59.2085 27.5654C60.1805 27.5719 61.1524 27.4557 62.0902 27.2203C62.8602 27.0429 63.5892 26.7332 64.2429 26.3139C64.787 25.9365 65.0608 25.5172 65.0608 25.0559C65.0745 24.6495 64.9273 24.2495 64.6501 23.9367C64.3592 23.6238 63.9314 23.4561 63.4899 23.4786H63.4934Z" fill="white"/>
<path d="M78.7077 12.2631C78.265 12.2502 77.8351 12.4275 77.5272 12.7467C77.216 13.0658 77.0492 13.4979 77.062 13.946V13.9847C76.8984 13.8331 76.7252 13.6816 76.5263 13.5365C76.0034 13.1497 75.426 12.8434 74.8133 12.6274C74.1172 12.3824 73.3858 12.2631 72.6479 12.2695C71.4642 12.2599 70.303 12.6016 69.3117 13.2496C68.2884 13.9202 67.4608 14.8519 66.909 15.948C66.2963 17.1828 65.9916 18.5498 66.0204 19.9296C65.9948 21.2998 66.2995 22.6603 66.909 23.8854C67.4608 24.988 68.3012 25.9229 69.3374 26.587C70.3607 27.2415 71.5508 27.58 72.7634 27.5671C73.4243 27.5736 74.0787 27.4543 74.6978 27.2221C75.2528 27.0158 75.7756 26.7321 76.2536 26.3807C76.552 26.1615 76.8278 25.91 77.078 25.636C77.0716 26.0744 77.2384 26.4968 77.54 26.8095C78.1976 27.451 79.2434 27.451 79.901 26.8095C80.2122 26.4903 80.379 26.0551 80.3693 25.6102V13.9428C80.3854 13.4914 80.2186 13.053 79.901 12.7306C79.5866 12.4146 79.1536 12.2437 78.7077 12.2599V12.2631ZM76.6899 22.2702C76.3755 22.9408 75.8879 23.5114 75.2784 23.9241C74.6497 24.3335 73.9151 24.5463 73.1644 24.5302C72.4266 24.5431 71.6984 24.3335 71.0793 23.9241C70.4698 23.5114 69.9822 22.9408 69.6678 22.2702C68.9909 20.7711 68.9909 19.0527 69.6678 17.5568C69.9822 16.8862 70.4698 16.3156 71.0793 15.9029C71.6984 15.4935 72.4234 15.2839 73.1644 15.2968C73.9119 15.2807 74.6497 15.4902 75.2784 15.9029C75.8879 16.3156 76.3787 16.8862 76.6899 17.5568C77.3668 19.0559 77.3668 20.7743 76.6899 22.2702Z" fill="white"/>
<path d="M95.933 6.52244C95.4903 6.50932 95.0605 6.68652 94.7557 7.01468C94.4446 7.33955 94.2778 7.77928 94.2874 8.23542V13.7484C94.1174 13.5877 93.9377 13.4367 93.7549 13.2923C93.232 12.8985 92.6546 12.5868 92.0419 12.3669C91.3457 12.1175 90.6143 11.9961 89.8765 12.0027C88.6896 11.9895 87.5251 12.3374 86.5307 13.0003C85.5074 13.6828 84.6797 14.6312 84.1312 15.7469C83.5185 17.0038 83.2137 18.3951 83.2426 19.7997C83.2169 21.1943 83.5217 22.5791 84.1312 23.8261C84.6862 24.9484 85.5234 25.8935 86.5596 26.5695C87.5829 27.2357 88.773 27.5802 89.9856 27.5671C90.6464 27.5737 91.3008 27.4523 91.92 27.216C92.4749 27.006 93.001 26.7205 93.4758 26.3595C93.7741 26.1364 94.05 25.8804 94.3002 25.6015C94.2938 26.0478 94.4606 26.4776 94.7654 26.7959C95.423 27.449 96.4688 27.449 97.1264 26.7959C97.4343 26.4678 97.6043 26.0281 97.5915 25.5752V8.23214C97.6076 7.77272 97.4408 7.32643 97.1264 6.99827C96.812 6.67668 96.3821 6.50275 95.9362 6.51916L95.933 6.52244ZM93.9185 22.1788C93.6041 22.8614 93.1165 23.4422 92.507 23.8622C91.8783 24.279 91.1436 24.4956 90.393 24.4792C89.6552 24.4923 88.927 24.279 88.3079 23.8622C87.6984 23.4422 87.2108 22.8614 86.8964 22.1788C86.2195 20.6529 86.2195 18.9038 86.8964 17.3811C87.2108 16.6986 87.6984 16.1177 88.3079 15.6977C88.927 15.2809 89.652 15.0676 90.393 15.0808C91.1404 15.0644 91.8783 15.2777 92.507 15.6977C93.1165 16.1177 93.6073 16.6986 93.9185 17.3811C94.5953 18.9071 94.5953 20.6561 93.9185 22.1788Z" fill="white"/>
<path d="M112.524 14.4284C111.837 13.7633 111.016 13.2274 110.111 12.84C109.202 12.4526 108.213 12.2556 107.214 12.2589C105.898 12.2589 104.604 12.5785 103.467 13.1919C102.268 13.8343 101.279 14.7641 100.602 15.8779C99.8719 17.0466 99.5071 18.4575 99.5071 20.1137C99.4861 21.4406 99.8298 22.7481 100.51 23.92C101.177 25.0403 102.177 25.9636 103.39 26.5835C104.744 27.2615 106.27 27.6004 107.813 27.5649C108.806 27.5714 109.795 27.4197 110.732 27.1162C111.525 26.887 112.265 26.5254 112.921 26.054C113.478 25.6505 113.759 25.1985 113.759 24.711C113.752 23.9426 113.075 23.326 112.24 23.3292H112.23C111.872 23.3389 111.525 23.4228 111.212 23.5778C110.991 23.6908 110.749 23.8232 110.483 23.9781C110.15 24.1589 109.792 24.2945 109.416 24.3785C108.838 24.5011 108.241 24.5592 107.645 24.5431C105.414 24.5528 103.495 23.0871 103.096 21.0661H112.984C113.443 21.0725 113.892 20.924 114.243 20.6528C114.597 20.3881 114.804 19.9942 114.815 19.5778C114.818 18.6092 114.611 17.6536 114.201 16.7625C113.801 15.8973 113.233 15.1064 112.524 14.4284ZM104.19 16.2621C104.565 15.9167 105.028 15.6584 105.537 15.5164C106.081 15.3646 106.645 15.2904 107.214 15.2936C107.824 15.2936 108.424 15.4195 108.971 15.6649C109.504 15.9038 109.978 16.246 110.349 16.6721C110.718 17.0822 110.932 17.589 110.967 18.1185V18.3122H103.106C103.148 18.0959 103.208 17.886 103.285 17.6762C103.464 17.1467 103.776 16.6657 104.193 16.2654L104.19 16.2621Z" fill="white"/>
<path d="M136.912 13.1289C136.217 12.5513 135.207 12.2625 133.872 12.2592C133.106 12.2494 132.346 12.4266 131.664 12.7778C131.037 13.0994 130.469 13.5261 129.985 14.0414C129.605 14.4352 129.277 14.8717 129.004 15.3476C128.771 14.5927 128.365 13.9068 127.819 13.3423C127.118 12.6202 126.023 12.2592 124.542 12.2625C123.964 12.2559 123.393 12.3577 122.85 12.5546C122.344 12.7449 121.87 13.0042 121.435 13.3292C121.029 13.6213 120.662 13.9626 120.343 14.3499C120.243 14.4713 120.149 14.5927 120.064 14.7142V14.258C120.077 13.8018 119.908 13.362 119.593 13.0371C118.931 12.3806 117.869 12.3806 117.203 13.0371C116.888 13.362 116.719 13.805 116.729 14.258V25.8469C116.716 26.3031 116.888 26.7428 117.203 27.0678C117.869 27.7209 118.928 27.7209 119.593 27.0678C119.905 26.7396 120.077 26.2998 120.064 25.8469V18.6723C120.058 18.0947 120.184 17.5203 120.441 17.0018C120.694 16.5029 121.084 16.0893 121.568 15.8104C122.117 15.4953 122.74 15.3378 123.37 15.3542C124.094 15.3542 124.646 15.5019 125.036 15.8104C125.426 16.109 125.708 16.5259 125.841 17.0018C125.997 17.5433 126.072 18.1078 126.065 18.6723V25.8567C126.052 26.3129 126.225 26.7527 126.54 27.0776C127.205 27.7307 128.261 27.7307 128.926 27.0776C129.241 26.7527 129.41 26.3096 129.401 25.8567V18.6723C129.394 18.0947 129.521 17.5203 129.777 17.0018C130.031 16.5029 130.42 16.0893 130.904 15.8104C131.453 15.4953 132.076 15.3378 132.706 15.3542C133.427 15.3542 133.983 15.5019 134.372 15.8104C134.759 16.109 135.041 16.5291 135.175 17.0018C135.33 17.5433 135.405 18.1078 135.399 18.6723V25.8567C135.386 26.3129 135.558 26.7527 135.873 27.0776C136.538 27.7307 137.594 27.7307 138.26 27.0776C138.575 26.7527 138.743 26.3096 138.734 25.8567V18.6723C138.747 17.5892 138.614 16.5094 138.344 15.4592C138.126 14.5501 137.626 13.7361 136.922 13.1322L136.912 13.1289Z" fill="white"/>
<path d="M154.512 12.7613C153.813 12.0913 152.692 12.0913 151.989 12.7613C151.656 13.093 151.478 13.5453 151.488 14.0076V21.341C151.509 21.9809 151.378 22.6174 151.107 23.2003C150.874 23.6827 150.497 24.0848 150.024 24.3461C149.492 24.6174 148.896 24.7514 148.292 24.7313C147.294 24.7313 146.52 24.4767 145.964 23.9709C145.409 23.465 145.127 22.5906 145.127 21.3511V14.0076C145.141 13.5419 144.959 13.093 144.627 12.7613C143.927 12.0913 142.806 12.0913 142.107 12.7613C141.774 13.093 141.596 13.5453 141.606 14.0076V22.3695C141.589 23.3544 141.808 24.3327 142.254 25.2205C142.655 26.0211 143.279 26.6979 144.054 27.1669C144.874 27.6459 145.813 27.8872 146.766 27.8637C147.559 27.8738 148.351 27.7699 149.112 27.5488C149.76 27.3578 150.363 27.0429 150.885 26.6208C151.114 26.4299 151.327 26.2154 151.516 25.9843V26.2925C151.516 27.2674 151.365 28.0346 151.059 28.5974C150.775 29.1435 150.295 29.5723 149.712 29.8001C148.995 30.058 148.234 30.182 147.469 30.1585C146.869 30.1686 146.273 30.0681 145.71 29.8604C145.203 29.6594 144.791 29.512 144.479 29.4148C144.078 29.2607 143.629 29.2875 143.248 29.4852C142.82 29.7331 142.511 30.1418 142.398 30.6175C142.257 31.0128 142.309 31.4483 142.532 31.8068C142.827 32.2356 143.252 32.5606 143.746 32.7348C144.301 32.9525 144.884 33.0966 145.477 33.1636C146.139 33.2574 146.804 33.3043 147.473 33.3077C148.776 33.3211 150.069 33.0865 151.275 32.6108C152.4 32.1586 153.35 31.3713 153.988 30.3629C154.66 29.321 154.996 27.9207 154.999 26.1652V14.0076C155.013 13.5453 154.838 13.0964 154.509 12.7613H154.512Z" fill="white"/>
<path d="M2.41921 7.47491C3.74262 7.48156 4.8124 8.57562 4.81891 9.92906V22.662C4.81891 22.9913 4.84167 23.3238 4.88394 23.6497C5.04652 25.2293 5.49524 26.7689 6.20085 28.1855C6.93896 29.6654 7.95672 30.9855 9.19559 32.0596C10.3954 33.0972 11.7839 33.8786 13.2796 34.3642C13.9397 34.5803 14.6193 34.7333 15.3086 34.8264C8.74687 36.5456 2.06803 32.4986 0.386943 25.7913C0.126813 24.767 0 23.7162 0 22.662V9.92906C0.00650325 8.56897 1.08929 7.46826 2.41921 7.47491Z" fill="#0ABB87"/>
<path d="M10.3853 30.9051C10.0896 30.531 9.81377 30.1365 9.56787 29.725C10.6046 30.1433 11.7178 30.3236 12.831 30.2521C16.8749 29.9971 19.9719 26.4298 19.9719 22.2844V3.40377C19.952 2.0231 20.9953 0.866866 22.3444 0.778448C23.7035 0.73764 24.8366 1.83266 24.8765 3.22354C24.8765 3.24734 24.8765 3.27115 24.8765 3.29495V22.4952C24.8798 25.0865 24.1122 27.6166 22.6734 29.7488C20.1414 33.4964 15.1204 34.435 11.4553 31.8437C11.2792 31.7212 11.1097 31.5886 10.9436 31.4526C10.7409 31.2894 10.5515 31.1057 10.382 30.9085L10.3853 30.9051Z" fill="#0ABB87"/>
<path d="M12.9166 23.7403C15.2945 23.7403 17.2222 21.8127 17.2222 19.4348C17.2222 17.0569 15.2945 15.1292 12.9166 15.1292C10.5387 15.1292 8.61108 17.0569 8.61108 19.4348C8.61108 21.8127 10.5387 23.7403 12.9166 23.7403Z" fill="#0ABB87"/>
</svg>
